<mxfile host="Electron" agent="Mozilla/5.0 (Windows NT 10.0; Win64; x64) AppleWebKit/537.36 (KHTML, like Gecko) draw.io/25.0.2 Chrome/128.0.6613.186 Electron/32.2.5 Safari/537.36" version="25.0.2">
  <diagram name="Page-1" id="YpcpAr9dmMboprbBjzFn">
    <mxGraphModel dx="1434" dy="836" grid="1" gridSize="10" guides="1" tooltips="1" connect="1" arrows="1" fold="1" page="1" pageScale="1" pageWidth="850" pageHeight="1100" math="0" shadow="0">
      <root>
        <mxCell id="0" />
        <mxCell id="1" parent="0" />
        <mxCell id="Nx5AF5Ycw5sYvg8waEEX-1" value="Home Page" style="text;html=1;align=center;verticalAlign=middle;resizable=0;points=[];autosize=1;strokeColor=none;fillColor=none;fontSize=24;" parent="1" vertex="1">
          <mxGeometry x="20" y="75" width="150" height="40" as="geometry" />
        </mxCell>
        <mxCell id="Nx5AF5Ycw5sYvg8waEEX-3" value="" style="rounded=0;whiteSpace=wrap;html=1;" parent="1" vertex="1">
          <mxGeometry x="40" y="120" width="160" height="470" as="geometry" />
        </mxCell>
        <mxCell id="Nx5AF5Ycw5sYvg8waEEX-5" value="Find Jobs" style="rounded=1;whiteSpace=wrap;html=1;" parent="1" vertex="1">
          <mxGeometry x="220" y="120" width="140" height="40" as="geometry" />
        </mxCell>
        <mxCell id="Nx5AF5Ycw5sYvg8waEEX-7" value="" style="rounded=1;whiteSpace=wrap;html=1;" parent="1" vertex="1">
          <mxGeometry x="220" y="180" width="420" height="230" as="geometry" />
        </mxCell>
        <mxCell id="Nx5AF5Ycw5sYvg8waEEX-8" value="JOBS GRID" style="text;html=1;align=center;verticalAlign=middle;resizable=0;points=[];autosize=1;strokeColor=none;fillColor=none;fontSize=22;fontFamily=Verdana;" parent="1" vertex="1">
          <mxGeometry x="350" y="275" width="150" height="40" as="geometry" />
        </mxCell>
        <mxCell id="Nx5AF5Ycw5sYvg8waEEX-9" value="Logo" style="ellipse;whiteSpace=wrap;html=1;aspect=fixed;fontFamily=Verdana;" parent="1" vertex="1">
          <mxGeometry x="90" y="140" width="60" height="60" as="geometry" />
        </mxCell>
        <mxCell id="Nx5AF5Ycw5sYvg8waEEX-10" value="Home" style="text;html=1;align=center;verticalAlign=middle;resizable=0;points=[];autosize=1;strokeColor=none;fillColor=none;fontFamily=Verdana;fontSize=18;" parent="1" vertex="1">
          <mxGeometry x="70" y="220" width="80" height="40" as="geometry" />
        </mxCell>
        <mxCell id="Nx5AF5Ycw5sYvg8waEEX-12" value="" style="sketch=0;pointerEvents=1;shadow=0;dashed=0;html=1;strokeColor=none;labelPosition=center;verticalLabelPosition=bottom;verticalAlign=top;outlineConnect=0;align=center;shape=mxgraph.office.concepts.home;fillColor=#FFFFFF;" parent="1" vertex="1">
          <mxGeometry x="140" y="230" width="20" height="20" as="geometry" />
        </mxCell>
        <mxCell id="Nx5AF5Ycw5sYvg8waEEX-13" value="This Project had created with Angular" style="text;html=1;align=center;verticalAlign=middle;resizable=0;points=[];autosize=1;strokeColor=none;fillColor=none;" parent="1" vertex="1">
          <mxGeometry x="240" y="440" width="220" height="30" as="geometry" />
        </mxCell>
        <mxCell id="ekNjKD8FQ3Hew2C4dbE3-1" value="Data Base" style="text;html=1;align=center;verticalAlign=middle;resizable=0;points=[];autosize=1;strokeColor=none;fillColor=none;fontSize=24;" parent="1" vertex="1">
          <mxGeometry x="40" y="640" width="140" height="40" as="geometry" />
        </mxCell>
        <mxCell id="ekNjKD8FQ3Hew2C4dbE3-2" value="CREATE TABLE IF NOT EXISTS &quot;Job&quot; (&lt;br&gt;    &quot;Id&quot;    INTEGER NOT NULL PRIMARY KEY AUTOINCREMENT,&lt;br&gt;    &quot;Day&quot;   DATETIME NOT NULL,&lt;br&gt;    &quot;Link&quot;  TEXT NOT NULL&lt;br&gt;    );" style="text;align=left;verticalAlign=middle;resizable=0;points=[];autosize=1;html=1;fontStyle=1;fillColor=#0050ef;fontColor=#ffffff;strokeColor=#001DBC;" parent="1" vertex="1">
          <mxGeometry x="40" y="680" width="350" height="90" as="geometry" />
        </mxCell>
        <mxCell id="N3cxSNJfRlZzZDg-aUS2-1" value="" style="strokeWidth=2;html=1;shape=mxgraph.flowchart.database;whiteSpace=wrap;" vertex="1" parent="1">
          <mxGeometry x="640" y="590" width="70" height="80" as="geometry" />
        </mxCell>
        <mxCell id="N3cxSNJfRlZzZDg-aUS2-2" value="Job" style="shape=table;startSize=30;container=1;collapsible=1;childLayout=tableLayout;fixedRows=1;rowLines=0;fontStyle=1;align=center;resizeLast=1;html=1;" vertex="1" parent="1">
          <mxGeometry x="585" y="690" width="180" height="150" as="geometry" />
        </mxCell>
        <mxCell id="N3cxSNJfRlZzZDg-aUS2-3" value="" style="shape=tableRow;horizontal=0;startSize=0;swimlaneHead=0;swimlaneBody=0;fillColor=none;collapsible=0;dropTarget=0;points=[[0,0.5],[1,0.5]];portConstraint=eastwest;top=0;left=0;right=0;bottom=1;" vertex="1" parent="N3cxSNJfRlZzZDg-aUS2-2">
          <mxGeometry y="30" width="180" height="30" as="geometry" />
        </mxCell>
        <mxCell id="N3cxSNJfRlZzZDg-aUS2-4" value="PK" style="shape=partialRectangle;connectable=0;fillColor=none;top=0;left=0;bottom=0;right=0;fontStyle=1;overflow=hidden;whiteSpace=wrap;html=1;" vertex="1" parent="N3cxSNJfRlZzZDg-aUS2-3">
          <mxGeometry width="30" height="30" as="geometry">
            <mxRectangle width="30" height="30" as="alternateBounds" />
          </mxGeometry>
        </mxCell>
        <mxCell id="N3cxSNJfRlZzZDg-aUS2-5" value="Id" style="shape=partialRectangle;connectable=0;fillColor=none;top=0;left=0;bottom=0;right=0;align=left;spacingLeft=6;fontStyle=5;overflow=hidden;whiteSpace=wrap;html=1;" vertex="1" parent="N3cxSNJfRlZzZDg-aUS2-3">
          <mxGeometry x="30" width="150" height="30" as="geometry">
            <mxRectangle width="150" height="30" as="alternateBounds" />
          </mxGeometry>
        </mxCell>
        <mxCell id="N3cxSNJfRlZzZDg-aUS2-6" value="" style="shape=tableRow;horizontal=0;startSize=0;swimlaneHead=0;swimlaneBody=0;fillColor=none;collapsible=0;dropTarget=0;points=[[0,0.5],[1,0.5]];portConstraint=eastwest;top=0;left=0;right=0;bottom=0;" vertex="1" parent="N3cxSNJfRlZzZDg-aUS2-2">
          <mxGeometry y="60" width="180" height="30" as="geometry" />
        </mxCell>
        <mxCell id="N3cxSNJfRlZzZDg-aUS2-7" value="" style="shape=partialRectangle;connectable=0;fillColor=none;top=0;left=0;bottom=0;right=0;editable=1;overflow=hidden;whiteSpace=wrap;html=1;" vertex="1" parent="N3cxSNJfRlZzZDg-aUS2-6">
          <mxGeometry width="30" height="30" as="geometry">
            <mxRectangle width="30" height="30" as="alternateBounds" />
          </mxGeometry>
        </mxCell>
        <mxCell id="N3cxSNJfRlZzZDg-aUS2-8" value="job_title" style="shape=partialRectangle;connectable=0;fillColor=none;top=0;left=0;bottom=0;right=0;align=left;spacingLeft=6;overflow=hidden;whiteSpace=wrap;html=1;" vertex="1" parent="N3cxSNJfRlZzZDg-aUS2-6">
          <mxGeometry x="30" width="150" height="30" as="geometry">
            <mxRectangle width="150" height="30" as="alternateBounds" />
          </mxGeometry>
        </mxCell>
        <mxCell id="N3cxSNJfRlZzZDg-aUS2-9" value="" style="shape=tableRow;horizontal=0;startSize=0;swimlaneHead=0;swimlaneBody=0;fillColor=none;collapsible=0;dropTarget=0;points=[[0,0.5],[1,0.5]];portConstraint=eastwest;top=0;left=0;right=0;bottom=0;" vertex="1" parent="N3cxSNJfRlZzZDg-aUS2-2">
          <mxGeometry y="90" width="180" height="30" as="geometry" />
        </mxCell>
        <mxCell id="N3cxSNJfRlZzZDg-aUS2-10" value="" style="shape=partialRectangle;connectable=0;fillColor=none;top=0;left=0;bottom=0;right=0;editable=1;overflow=hidden;whiteSpace=wrap;html=1;" vertex="1" parent="N3cxSNJfRlZzZDg-aUS2-9">
          <mxGeometry width="30" height="30" as="geometry">
            <mxRectangle width="30" height="30" as="alternateBounds" />
          </mxGeometry>
        </mxCell>
        <mxCell id="N3cxSNJfRlZzZDg-aUS2-11" value="job_day" style="shape=partialRectangle;connectable=0;fillColor=none;top=0;left=0;bottom=0;right=0;align=left;spacingLeft=6;overflow=hidden;whiteSpace=wrap;html=1;" vertex="1" parent="N3cxSNJfRlZzZDg-aUS2-9">
          <mxGeometry x="30" width="150" height="30" as="geometry">
            <mxRectangle width="150" height="30" as="alternateBounds" />
          </mxGeometry>
        </mxCell>
        <mxCell id="N3cxSNJfRlZzZDg-aUS2-12" value="" style="shape=tableRow;horizontal=0;startSize=0;swimlaneHead=0;swimlaneBody=0;fillColor=none;collapsible=0;dropTarget=0;points=[[0,0.5],[1,0.5]];portConstraint=eastwest;top=0;left=0;right=0;bottom=0;" vertex="1" parent="N3cxSNJfRlZzZDg-aUS2-2">
          <mxGeometry y="120" width="180" height="30" as="geometry" />
        </mxCell>
        <mxCell id="N3cxSNJfRlZzZDg-aUS2-13" value="" style="shape=partialRectangle;connectable=0;fillColor=none;top=0;left=0;bottom=0;right=0;editable=1;overflow=hidden;whiteSpace=wrap;html=1;" vertex="1" parent="N3cxSNJfRlZzZDg-aUS2-12">
          <mxGeometry width="30" height="30" as="geometry">
            <mxRectangle width="30" height="30" as="alternateBounds" />
          </mxGeometry>
        </mxCell>
        <mxCell id="N3cxSNJfRlZzZDg-aUS2-14" value="job_link" style="shape=partialRectangle;connectable=0;fillColor=none;top=0;left=0;bottom=0;right=0;align=left;spacingLeft=6;overflow=hidden;whiteSpace=wrap;html=1;" vertex="1" parent="N3cxSNJfRlZzZDg-aUS2-12">
          <mxGeometry x="30" width="150" height="30" as="geometry">
            <mxRectangle width="150" height="30" as="alternateBounds" />
          </mxGeometry>
        </mxCell>
      </root>
    </mxGraphModel>
  </diagram>
</mxfile>
